<?xml version="1.0" encoding="utf-8"?>
<!-- Generator: Adobe Illustrator 17.0.2, SVG Export Plug-In . SVG Version: 6.00 Build 0)  -->
<!DOCTYPE svg PUBLIC "-//W3C//DTD SVG 1.1//EN" "http://www.w3.org/Graphics/SVG/1.1/DTD/svg11.dtd" [
	<!ENTITY ns_extend "http://ns.adobe.com/Extensibility/1.0/">
	<!ENTITY ns_ai "http://ns.adobe.com/AdobeIllustrator/10.0/">
	<!ENTITY ns_graphs "http://ns.adobe.com/Graphs/1.0/">
	<!ENTITY ns_vars "http://ns.adobe.com/Variables/1.0/">
	<!ENTITY ns_imrep "http://ns.adobe.com/ImageReplacement/1.0/">
	<!ENTITY ns_sfw "http://ns.adobe.com/SaveForWeb/1.0/">
	<!ENTITY ns_custom "http://ns.adobe.com/GenericCustomNamespace/1.0/">
	<!ENTITY ns_adobe_xpath "http://ns.adobe.com/XPath/1.0/">
]>
<svg version="1.1" id="Layer_1" xmlns:x="&ns_extend;" xmlns:i="&ns_ai;" xmlns:graph="&ns_graphs;"
	 xmlns="http://www.w3.org/2000/svg" xmlns:xlink="http://www.w3.org/1999/xlink" x="0px" y="0px" width="280px" height="115px"
	 viewBox="0 0 280 115" enable-background="new 0 0 280 115" xml:space="preserve">
<metadata>
	<sfw  xmlns="&ns_sfw;">
		<slices></slices>
		<sliceSourceBounds  width="279.558" height="115.09" bottomLeftOrigin="true" x="157.5" y="135.91"></sliceSourceBounds>
	</sfw>
</metadata>
<g>
	<path fill="#EF4051" d="M17.37,49.706c0.487-0.422,1.113-0.687,1.804-0.687c0.863,0,1.628,0.408,2.137,1.032l25.147-18.538
		c-0.562-0.988-0.887-2.129-0.887-3.347c0-3.747,3.038-6.785,6.785-6.785s6.785,3.038,6.785,6.785c0,3.182-2.194,5.845-5.149,6.578
		l5.435,18.696c0.481-0.108,0.979-0.17,1.493-0.17c1.732,0,3.308,0.655,4.507,1.723l12.299-11.782
		c-0.756-1.094-1.201-2.419-1.201-3.849c0-3.747,3.038-6.785,6.785-6.785c3.747,0,6.785,3.038,6.785,6.785
		c0,2.513-1.369,4.701-3.399,5.874l4.653,8.591c0.995-0.38,2.165-0.167,2.958,0.631l8.953-7.878
		c0.862-2.261,1.337-4.711,1.337-7.275c0-11.302-9.162-20.464-20.464-20.464c-2.123,0-4.171,0.324-6.097,0.924
		C75.003,8.385,64.631,0,52.297,0c-14.71,0-26.635,11.925-26.635,26.636c0,1.599,0.149,3.163,0.419,4.685
		c-1.785-0.509-3.668-0.787-5.616-0.787c-6.087,0-11.55,2.707-15.298,6.969L17.37,49.706z"/>
	<path fill="#EF4051" d="M103.403,48.259l-8.409,7.4c0.265,0.946,0.032,2.004-0.717,2.735c-1.091,1.064-2.855,1.042-3.919-0.049
		c-1.002-1.027-1.029-2.642-0.12-3.717l-4.785-8.834c-0.675,0.225-1.395,0.352-2.145,0.352c-1.827,0-3.483-0.726-4.703-1.901
		L66.343,55.992c0.85,1.133,1.36,2.537,1.36,4.063c0,3.747-3.038,6.785-6.785,6.785c-3.747,0-6.785-3.038-6.785-6.785
		c0-2.755,1.645-5.122,4.004-6.184l-5.504-18.933c-0.093,0.004-0.185,0.014-0.279,0.014c-2.041,0-3.867-0.906-5.111-2.332
		L21.895,51.305c0.028,0.158,0.049,0.319,0.049,0.485c0,1.524-1.247,2.772-2.772,2.772c-1.524,0-2.772-1.247-2.772-2.772
		c0-0.336,0.07-0.655,0.18-0.953L4.301,38.556C1.608,42.054,0,46.433,0,51.161c0,11.302,9.162,20.627,20.464,20.627h23.101
		C47.331,77.346,53.698,81,60.918,81s13.587-3.654,17.353-9.213h13.992c7.9,0,14.304-6.566,14.304-14.466
		C106.566,53.929,105.376,50.739,103.403,48.259z"/>
</g>
<path fill="#383838" d="M141.583,46.622c0,8.5-3.653,12.47-9.308,12.47h-6.955c-0.737,0-1.334-0.597-1.334-1.335v-22.27
	c0-0.738,0.597-1.335,1.334-1.335h6.955C139.44,34.152,141.583,40.194,141.583,46.622z M138.984,46.622
	c0-7.447-2.529-9.835-6.709-9.835h-5.655v19.67h5.655C137.93,56.457,138.984,51.469,138.984,46.622z"/>
<path fill="#383838" d="M162.519,57.827c0,0.773-0.667,1.265-1.299,1.265c-1.194,0-2.002-1.37-2.213-2.002
	c-1.405,1.475-3.442,2.353-5.76,2.353c-5.058,0-8.149-3.969-8.149-8.887s3.126-8.887,8.009-8.887c2.283,0,4.18,0.703,5.655,2.107
	V43.53c0-0.703,0.562-1.3,1.3-1.3c0.737,0,1.299,0.597,1.299,1.3v12.118c0,0.211,0.105,0.773,0.457,0.983
	C162.273,56.878,162.519,57.335,162.519,57.827z M158.76,50.556c0-3.899-2.143-6.288-5.515-6.288c-3.442,0-5.515,2.494-5.515,6.288
	s2.107,6.252,5.515,6.252S158.76,54.314,158.76,50.556z"/>
<path fill="#383838" d="M173.583,42.231h-2.634v-6.744c0-0.703-0.632-1.3-1.335-1.3c-0.667,0-1.3,0.597-1.3,1.3v6.744h-1.827
	c-0.737,0-1.334,0.597-1.334,1.3c0,0.737,0.597,1.299,1.334,1.299h1.827v12.961c0,0.703,0.632,1.3,1.3,1.3
	c0.703,0,1.335-0.597,1.335-1.3V44.83h2.634c0.738,0,1.334-0.562,1.334-1.299C174.918,42.793,174.321,42.231,173.583,42.231z"/>
<path fill="#383838" d="M194.097,57.827c0,0.773-0.667,1.265-1.299,1.265c-1.194,0-2.002-1.37-2.213-2.002
	c-1.405,1.475-3.442,2.353-5.761,2.353c-5.058,0-8.149-3.969-8.149-8.887s3.126-8.887,8.009-8.887c2.283,0,4.18,0.703,5.655,2.107
	V43.53c0-0.703,0.562-1.3,1.3-1.3c0.737,0,1.299,0.597,1.299,1.3v12.118c0,0.211,0.105,0.773,0.457,0.983
	C193.852,56.878,194.097,57.335,194.097,57.827z M190.339,50.556c0-3.899-2.143-6.288-5.515-6.288c-3.442,0-5.515,2.494-5.515,6.288
	s2.107,6.252,5.515,6.252S190.339,54.314,190.339,50.556z"/>
<path fill="#383838" d="M199.542,35.487c0-0.667,0.597-1.3,1.299-1.3h8.009c3.899,0,6.92,2.951,6.92,6.885
	c0,3.899-2.986,6.885-6.92,6.885h-6.709v9.835c0,0.667-0.562,1.3-1.3,1.3c-0.737,0-1.299-0.632-1.299-1.3V35.487z M208.85,45.322
	c2.459,0,4.285-1.721,4.285-4.25c0-2.564-1.826-4.25-4.285-4.25h-6.709v8.5H208.85z"/>
<path fill="#383838" d="M227.371,41.634c0.703,0,1.3,0.597,1.3,1.335c0,0.702-0.597,1.299-1.3,1.299
	c-2.318,0-5.164,1.44-5.971,3.899v9.625c0,0.738-0.562,1.3-1.3,1.3c-0.737,0-1.299-0.562-1.299-1.3V45.744
	c0-0.105-0.035-0.387-0.105-0.597c-0.07-0.211-0.176-0.352-0.352-0.457c-0.457-0.246-0.702-0.667-0.702-1.159
	c0-0.703,0.597-1.3,1.334-1.3c0.878,0,1.756,0.948,2.073,1.862C222.945,42.372,225.299,41.634,227.371,41.634z"/>
<path fill="#383838" d="M229.795,50.485c0-5.093,3.267-8.816,8.22-8.816c4.988,0,8.043,4.04,8.043,8.887
	c0,0.738-0.632,1.3-1.334,1.3H232.5c0.457,3.091,2.389,4.953,5.41,4.953c2.283,0,3.829-1.054,4.742-2.81
	c0.246-0.457,0.703-0.703,1.194-0.703c0.738,0,1.3,0.632,1.3,1.3c0,0.211-0.035,0.421-0.141,0.597
	c-1.334,2.599-3.899,4.25-7.095,4.25C232.886,59.442,229.795,55.579,229.795,50.485z M243.318,49.256
	c-0.386-3.056-2.423-4.988-5.409-4.988c-3.056,0-4.917,1.932-5.41,4.988H243.318z"/>
<path fill="#383838" d="M249.219,55.368c0-0.703,0.562-1.335,1.335-1.335c0.492,0,0.843,0.246,1.159,0.738
	c0.527,0.808,1.44,1.686,3.829,1.686c2.74,0,4.004-1.194,4.004-2.6c0-1.405-1.019-2.072-4.18-2.564
	c-3.864-0.597-5.971-1.897-5.971-4.847c0-2.951,2.74-4.812,6.147-4.812c2.81,0,5.093,1.194,5.901,3.407
	c0.035,0.141,0.07,0.281,0.07,0.386c0,0.703-0.562,1.335-1.37,1.335c-0.632,0-0.983-0.421-1.194-0.843
	c-0.457-0.948-1.124-1.651-3.583-1.651c-2.388,0-3.337,1.124-3.337,2.178c0,1.124,0.667,1.826,3.653,2.248
	c3.969,0.527,6.463,2.002,6.463,5.269c0,3.196-2.985,5.093-6.639,5.093c-2.775,0-5.128-1.089-6.147-3.126
	C249.254,55.754,249.219,55.543,249.219,55.368z"/>
<path fill="#383838" d="M266.01,55.368c0-0.703,0.562-1.335,1.335-1.335c0.492,0,0.843,0.246,1.159,0.738
	c0.527,0.808,1.44,1.686,3.829,1.686c2.74,0,4.004-1.194,4.004-2.6c0-1.405-1.019-2.072-4.18-2.564
	c-3.864-0.597-5.971-1.897-5.971-4.847c0-2.951,2.74-4.812,6.147-4.812c2.81,0,5.093,1.194,5.901,3.407
	c0.035,0.141,0.07,0.281,0.07,0.386c0,0.703-0.562,1.335-1.37,1.335c-0.632,0-0.983-0.421-1.194-0.843
	c-0.457-0.948-1.124-1.651-3.583-1.651c-2.388,0-3.337,1.124-3.337,2.178c0,1.124,0.667,1.826,3.653,2.248
	c3.969,0.527,6.463,2.002,6.463,5.269c0,3.196-2.985,5.093-6.639,5.093c-2.775,0-5.128-1.089-6.147-3.126
	C266.045,55.754,266.01,55.543,266.01,55.368z"/>
<g>
	<path fill="#B0B0B0" d="M21.338,107.112c0,4.439-3.651,7.978-8.249,7.978c-4.62,0-8.271-3.538-8.271-7.978
		c0-4.463,3.651-7.934,8.271-7.934C17.687,99.179,21.338,102.672,21.338,107.112z M6.644,107.112c0,3.471,2.93,6.242,6.446,6.242
		c3.516,0,6.4-2.771,6.4-6.242s-2.885-6.221-6.4-6.221C9.573,100.892,6.644,103.642,6.644,107.112z"/>
	<path fill="#B0B0B0" d="M30.552,99.224c3.899,0,6.152,1.938,6.152,5.297c0,3.493-2.253,5.499-6.152,5.499h-4.125V115h-1.803V99.224
		H30.552z M26.427,108.284h4.057c2.84,0,4.485-1.263,4.485-3.719c0-2.389-1.645-3.606-4.485-3.606h-4.057V108.284z"/>
	<path fill="#B0B0B0" d="M41.501,100.959v5.184h7.956v1.735h-7.956v5.409h9.195V115H39.699V99.224h10.705v1.735H41.501z"/>
	<path fill="#B0B0B0" d="M65.636,115l-9.466-12.666V115h-1.803V99.224h1.871l9.465,12.688V99.224h1.78V115H65.636z"/>
	<path fill="#B0B0B0" d="M84.832,99.224c4.598,0,8.113,3.403,8.113,7.889c0,4.484-3.538,7.888-8.181,7.888h-6.31V99.224H84.832z
		 M80.257,113.287h4.598c3.516,0,6.265-2.637,6.265-6.152c0-3.539-2.794-6.176-6.333-6.176h-4.53V113.287z"/>
	<path fill="#B0B0B0" d="M97.224,111.011L95.466,115H93.55l7.077-15.776h1.871L109.552,115h-1.961l-1.758-3.989H97.224z
		 M101.506,101.274l-3.516,8.001h7.077L101.506,101.274z"/>
	<path fill="#B0B0B0" d="M115.363,100.959V115h-1.803v-14.041h-5.138v-1.735h12.103v1.735H115.363z"/>
	<path fill="#B0B0B0" d="M123.046,111.011L121.288,115h-1.916l7.077-15.776h1.871L135.374,115h-1.961l-1.758-3.989H123.046z
		 M127.328,101.274l-3.516,8.001h7.077L127.328,101.274z"/>
	<path fill="#B0B0B0" d="M149.95,99.224c3.898,0,6.152,1.938,6.152,5.297c0,3.493-2.254,5.499-6.152,5.499h-4.124V115h-1.804V99.224
		H149.95z M145.826,108.284h4.057c2.839,0,4.484-1.263,4.484-3.719c0-2.389-1.646-3.606-4.484-3.606h-4.057V108.284z"/>
	<path fill="#B0B0B0" d="M171.988,108.51c0,4.102-2.479,6.58-6.604,6.58c-4.146,0-6.648-2.479-6.648-6.58v-9.286h1.803v9.286
		c0,3.064,1.849,4.845,4.846,4.845s4.801-1.78,4.801-4.845v-9.286h1.803V108.51z"/>
	<path fill="#B0B0B0" d="M183.051,99.224c3.178,0,5.094,1.465,5.094,3.944c0,1.848-1.06,3.178-2.907,3.561
		c2.276,0.338,3.605,1.826,3.605,3.989c0,2.682-2.118,4.282-5.679,4.282h-6.762V99.224H183.051z M178.206,106.03h4.755
		c2.118,0,3.358-0.924,3.358-2.569c0-1.601-1.24-2.502-3.358-2.502h-4.755V106.03z M178.206,113.287h4.755
		c2.569,0,4.057-1.014,4.057-2.817c0-1.713-1.487-2.727-4.057-2.727h-4.755V113.287z"/>
	<path fill="#B0B0B0" d="M201.258,113.287V115h-8.723V99.224h1.804v14.063H201.258z"/>
	<path fill="#B0B0B0" d="M204.185,115V99.224h1.804V115H204.185z"/>
	<path fill="#B0B0B0" d="M220.455,100.621l-0.767,1.69c-1.42-0.946-3.087-1.33-4.35-1.33c-2.028,0-3.358,0.767-3.358,2.097
		c0,4.057,8.88,1.938,8.857,7.662c0,2.637-2.321,4.327-5.702,4.327c-2.299,0-4.552-0.991-6.04-2.411l0.812-1.623
		c1.465,1.42,3.471,2.231,5.252,2.231c2.275,0,3.695-0.924,3.695-2.434c0.022-4.147-8.856-1.938-8.856-7.596
		c0-2.479,2.186-4.079,5.454-4.079C217.277,99.156,219.147,99.742,220.455,100.621z"/>
	<path fill="#B0B0B0" d="M235.846,115v-6.941h-9.511V115h-1.804V99.224h1.804v7.122h9.511v-7.122h1.803V115H235.846z"/>
	<path fill="#B0B0B0" d="M242.422,115V99.224h1.804V115H242.422z"/>
	<path fill="#B0B0B0" d="M260.27,115l-9.465-12.666V115h-1.804V99.224h1.871l9.466,12.688V99.224h1.78V115H260.27z"/>
	<path fill="#B0B0B0" d="M279.513,107.292v5.725c-1.555,1.239-3.741,2.073-5.859,2.073c-4.575,0-8.227-3.538-8.227-7.978
		c0-4.44,3.674-7.934,8.316-7.934c2.187,0,4.305,0.834,5.814,2.164l-1.036,1.352c-1.285-1.149-3.021-1.825-4.778-1.825
		c-3.606,0-6.491,2.772-6.491,6.243c0,3.493,2.908,6.265,6.514,6.265c1.42,0,2.93-0.495,4.146-1.329v-4.756H279.513z"/>
</g>
</svg>
